<?xml version="1.0" standalone="no"?>
<!DOCTYPE svg PUBLIC "-//W3C//DTD SVG 20010904//EN"
 "http://www.w3.org/TR/2001/REC-SVG-20010904/DTD/svg10.dtd">
<svg version="1.0" xmlns="http://www.w3.org/2000/svg"
 width="300.000000pt" height="260.000000pt" viewBox="0 0 300.000000 260.000000"
 preserveAspectRatio="xMidYMid meet">
<metadata>
Created by potrace 1.10, written by Peter Selinger 2001-2011
</metadata>
<g transform="translate(0.000000,260.000000) scale(0.050000,-0.050000)"
fill="#ff0000" stroke="none">
<path d="M2151 5183 c4 -4 -33 -88 -82 -185 -55 -110 -80 -178 -64 -178 18 -1
18 -5 -3 -18 -15 -10 -21 -27 -14 -40 8 -12 3 -18 -12 -12 -26 9 -176 -279
-176 -337 0 -15 -18 -48 -40 -73 -22 -25 -40 -62 -40 -81 0 -19 -13 -45 -30
-59 -16 -14 -30 -41 -30 -61 0 -20 -9 -42 -20 -49 -12 -7 -16 -20 -11 -29 6
-9 -6 -38 -26 -64 -47 -60 -203 -379 -178 -364 35 22 -10 -82 -51 -118 -22
-19 -32 -35 -22 -35 10 0 8 -7 -4 -15 -32 -21 -110 -206 -97 -227 7 -10 -3
-32 -20 -50 -17 -17 -31 -44 -31 -59 0 -16 -9 -29 -21 -29 -25 0 -101 -161
-86 -184 5 -9 -1 -16 -13 -16 -12 0 -20 -20 -16 -45 4 -29 -4 -45 -24 -45 -18
0 -33 -23 -36 -56 -4 -31 -20 -61 -35 -67 -16 -6 -29 -20 -29 -30 0 -10 -18
-56 -40 -102 -22 -45 -40 -99 -40 -119 0 -20 -10 -36 -21 -36 -12 0 -16 -9 -9
-20 7 -11 2 -20 -10 -20 -12 0 -17 -8 -11 -18 6 -11 -2 -32 -18 -48 -16 -16
-24 -35 -17 -42 7 -6 3 -12 -9 -12 -19 0 -58 -79 -47 -96 2 -3 -10 -19 -26
-35 -17 -17 -25 -43 -19 -60 6 -16 2 -29 -10 -29 -20 0 -55 -76 -47 -105 2 -8
-4 -15 -14 -15 -10 0 -23 -14 -30 -31 -6 -18 -3 -26 8 -19 11 7 20 4 20 -6 0
-11 -18 -24 -40 -30 -23 -6 -40 -27 -40 -49 0 -21 -7 -45 -15 -53 -8 -9 -15
-21 -16 -29 0 -7 -11 -32 -24 -55 -13 -24 -18 -48 -11 -55 7 -7 3 -13 -9 -13
-21 0 -60 -85 -43 -94 4 -2 -9 -17 -30 -32 -21 -15 -32 -38 -24 -51 8 -13 6
-23 -5 -23 -24 0 -135 -260 -127 -297 4 -15 -2 -22 -12 -15 -18 11 -73 -91
-64 -120 2 -7 -7 -20 -20 -28 -72 -44 -19 -360 61 -360 12 0 35 -14 52 -30 18
-18 21 -30 7 -30 -14 0 -11 -12 7 -30 17 -17 37 -30 44 -30 8 0 25 -14 37 -31
13 -17 36 -33 53 -36 49 -8 121 -54 110 -71 -5 -9 75 -76 179 -149 l188 -133
262 0 c248 0 420 37 420 92 0 6 -11 4 -25 -4 -18 -10 -19 -8 -3 10 12 13 47
28 77 34 56 10 212 82 231 106 6 7 33 24 60 38 28 14 34 21 14 15 -22 -6 -31
-2 -23 10 7 11 27 16 46 11 40 -13 189 75 168 98 -8 9 -4 10 9 2 14 -7 61 5
105 28 84 42 107 67 46 48 -19 -6 -4 7 35 29 38 21 76 35 84 30 22 -13 338
165 321 181 -8 9 -6 12 5 9 33 -11 150 46 138 67 -7 10 0 16 15 13 15 -4 56 6
92 21 84 35 117 20 160 -72 19 -42 40 -80 45 -86 6 -5 13 -28 16 -50 4 -22 24
-64 45 -94 22 -30 39 -66 39 -80 0 -14 12 -49 27 -77 15 -29 33 -76 40 -105 8
-31 28 -54 46 -54 21 0 28 -12 22 -38 -7 -26 5 -46 37 -63 26 -14 42 -33 35
-43 -39 -64 60 -75 685 -75 655 -1 688 3 688 94 0 12 11 25 25 30 41 14 26
176 -26 275 -26 50 -48 95 -49 100 -9 48 -41 114 -63 130 -15 11 -31 39 -36
63 -8 44 -88 210 -109 227 -6 6 -15 28 -18 50 -4 22 -21 51 -37 64 -17 13 -25
32 -19 43 7 11 -6 33 -29 49 -24 17 -32 33 -19 37 15 5 9 25 -16 57 -39 50
-44 61 -44 101 0 12 -10 15 -21 8 -12 -7 -20 -1 -18 14 8 55 -2 99 -19 89 -15
-10 -42 76 -42 136 0 13 65 59 145 101 80 43 152 88 160 100 8 11 15 14 15 6
0 -9 34 5 75 31 41 26 154 89 250 142 97 52 171 102 165 112 -6 9 -2 23 10 30
11 7 20 2 20 -10 0 -12 54 6 120 42 66 35 120 71 120 81 0 9 7 16 15 15 40 -7
66 4 55 22 -7 11 2 20 19 20 17 0 31 10 31 22 0 12 14 17 30 11 17 -7 30 -5
30 4 0 9 12 16 26 16 34 0 134 67 134 89 0 10 18 18 40 18 22 0 40 9 40 20 0
11 14 20 31 20 17 0 26 9 19 20 -7 11 2 20 19 20 19 0 31 18 31 45 0 27 7 36
15 22 11 -17 28 -13 60 13 89 72 46 237 -61 239 -23 1 -31 10 -22 26 11 20 8
20 -13 0 -32 -30 -99 -33 -99 -5 0 11 -43 19 -95 18 -77 -2 -86 -5 -45 -18 39
-12 26 -16 -58 -18 -136 -3 -808 -152 -873 -194 -27 -18 -64 -27 -82 -20 -18
7 -54 -1 -81 -19 -26 -17 -63 -27 -82 -21 -47 14 -229 -36 -210 -57 9 -10 5
-11 -9 -3 -27 15 -267 -29 -256 -47 4 -7 -26 -9 -67 -5 -67 7 -78 17 -119 106
-25 54 -50 98 -55 98 -6 0 -4 -10 4 -23 8 -14 5 -18 -8 -10 -12 8 -21 29 -20
48 1 39 -164 407 -204 455 -14 16 -19 30 -12 30 18 0 -68 167 -96 185 -12 8
-14 15 -5 15 9 0 -2 32 -25 71 -23 39 -42 81 -42 93 0 12 -19 38 -43 59 -24
20 -32 37 -19 37 14 0 3 36 -27 91 -28 50 -51 104 -51 120 0 16 -17 39 -38 52
-21 13 -34 35 -28 49 5 14 -11 36 -35 49 -32 17 -38 28 -19 39 18 11 6 47 -47
138 -39 67 -67 122 -61 122 5 0 -12 29 -38 65 -27 36 -45 76 -40 90 5 14 0 25
-12 25 -12 0 -22 18 -22 40 0 22 -10 40 -23 40 -13 0 -18 5 -12 12 17 16 -25
128 -48 128 -11 0 -14 9 -7 20 7 11 3 20 -9 20 -11 0 -21 12 -21 26 0 57 -159
354 -190 354 -18 0 -30 11 -29 25 10 75 2 78 -179 72 -99 -4 -176 -10 -171
-14z m357 -378 c219 -462 1235 -2573 1243 -2582 7 -8 1294 297 1806 428 388
100 363 95 363 73 0 -9 -38 -33 -85 -54 -90 -39 -495 -259 -1327 -720 l-502
-278 58 -111 c70 -135 676 -1384 676 -1394 0 -4 -267 -5 -592 -2 l-593 5 -189
420 c-104 231 -203 458 -220 505 -35 101 -23 99 -141 27 -52 -32 -503 -283
-1001 -559 l-905 -500 -425 311 c-233 172 -431 318 -439 325 -9 8 22 90 67
182 45 93 227 470 403 839 1386 2903 1390 2912 1525 3205 55 118 105 214 110
214 6 0 81 -150 168 -334z"/>
<path d="M2290 2785 c-20 -52 -122 -284 -226 -515 -264 -587 -884 -2017 -884
-2041 0 -7 55 44 121 114 67 69 112 129 101 133 -12 4 1 31 29 60 27 30 49 73
49 98 0 24 16 53 35 64 19 12 24 21 11 21 -14 1 -20 15 -13 33 7 18 18 23 25
11 7 -11 23 3 36 30 20 43 19 46 -5 26 -23 -19 -29 -17 -29 9 0 17 10 32 22
32 13 0 18 18 12 40 -14 54 3 51 25 -5 17 -41 19 -40 20 19 1 81 35 172 59
157 10 -6 18 22 18 62 0 71 34 116 71 93 11 -7 13 -2 5 11 -8 13 -3 24 12 25
14 1 4 9 -24 18 -33 11 -38 17 -15 18 20 1 36 19 38 42 2 22 4 51 5 65 1 14
10 31 20 38 26 19 73 164 56 176 -8 6 -14 38 -14 71 0 73 17 80 510 193 449
103 410 88 375 142 -32 49 -341 737 -364 810 -21 68 -42 55 -81 -50z m111
-445 c11 0 18 -7 17 -15 -6 -38 4 -66 20 -56 10 6 16 -27 15 -74 -3 -85 -3
-85 -98 -103 -52 -10 -95 -26 -95 -35 0 -10 -20 -16 -45 -15 -25 0 -33 6 -19
12 20 7 20 16 2 38 -17 21 -17 28 1 28 15 0 19 15 11 40 -7 22 -4 40 7 40 10
0 28 26 39 58 30 85 111 164 120 117 4 -19 15 -35 25 -35z"/>
<path d="M3372 2237 c9 -15 5 -18 -10 -8 -24 15 -283 -45 -302 -69 -22 -28
-78 -36 -87 -14 -7 18 -10 18 -11 -1 -1 -14 -15 -25 -31 -25 -37 0 -142 -96
-124 -114 7 -7 142 17 298 53 157 36 343 78 415 94 71 16 137 36 147 46 27 27
-168 62 -214 37 -27 -14 -34 -14 -24 2 8 13 -3 22 -29 22 -27 0 -37 -8 -28
-23z"/>
<path d="M3560 1427 c-420 -230 -454 -257 -306 -241 110 13 225 61 252 107 9
15 25 22 36 15 12 -6 38 4 59 23 22 19 39 28 39 20 0 -9 14 -5 30 9 17 14 30
18 30 9 0 -9 12 0 27 20 17 23 37 31 53 21 17 -11 21 -8 12 7 -8 13 -2 23 14
23 16 0 50 31 76 70 27 38 55 70 63 70 8 0 15 9 15 20 0 40 -57 16 -400 -173z"/>
</g>
</svg>
