<?xml version="1.0" standalone="no"?>
<!DOCTYPE svg PUBLIC "-//W3C//DTD SVG 1.0//EN" "http://www.w3.org/TR/2001/REC-SVG-20010904/DTD/svg10.dtd">
<svg xmlns="http://www.w3.org/2000/svg" xmlns:xlink="http://www.w3.org/1999/xlink" id="body_1" width="40" height="35">

<g transform="matrix(0.13333336 0 0 0.13333336 -0 0.33333334)">
	<g transform="matrix(0.05 0 -0 -0.05 0 260)">
        <path d="M2151 5183C 2155 5179 2118 5095 2069 4998C 2014 4888 1989 4820 2005 4820C 2023 4819 2023 4815 2002 4802C 1987 4792 1981 4775 1988 4762C 1996 4750 1991 4744 1976 4750C 1950 4759 1800 4471 1800 4413C 1800 4398 1782 4365 1760 4340C 1738 4315 1720 4278 1720 4259C 1720 4240 1707 4214 1690 4200C 1674 4186 1660 4159 1660 4139C 1660 4119 1651 4097 1640 4090C 1628 4083 1624 4070 1629 4061C 1635 4052 1623 4023 1603 3997C 1556 3937 1400 3618 1425 3633C 1460 3655 1415 3551 1374 3515C 1352 3496 1342 3480 1352 3480C 1362 3480 1360 3473 1348 3465C 1316 3444 1238 3259 1251 3238C 1258 3228 1248 3206 1231 3188C 1214 3171 1200 3144 1200 3129C 1200 3113 1191 3100 1179 3100C 1154 3100 1078 2939 1093 2916C 1098 2907 1092 2900 1080 2900C 1068 2900 1060 2880 1064 2855C 1068 2826 1060 2810 1040 2810C 1022 2810 1007 2787 1004 2754C 1000 2723 984 2693 969 2687C 953 2681 940 2667 940 2657C 940 2647 922 2601 900 2555C 878 2510 860 2456 860 2436C 860 2416 850 2400 839 2400C 827 2400 823 2391 830 2380C 837 2369 832 2360 820 2360C 808 2360 803 2352 809 2342C 815 2331 807 2310 791 2294C 775 2278 767 2259 774 2252C 781 2246 777 2240 765 2240C 746 2240 707 2161 718 2144C 720 2141 708 2125 692 2109C 675 2092 667 2066 673 2049C 679 2033 675 2020 663 2020C 643 2020 608 1944 616 1915C 618 1907 612 1900 602 1900C 592 1900 579 1886 572 1869C 566 1851 569 1843 580 1850C 591 1857 600 1854 600 1844C 600 1833 582 1820 560 1814C 537 1808 520 1787 520 1765C 520 1744 513 1720 505 1712C 497 1703 490 1691 489 1683C 489 1676 478 1651 465 1628C 452 1604 447 1580 454 1573C 461 1566 457 1560 445 1560C 424 1560 385 1475 402 1466C 406 1464 393 1449 372 1434C 351 1419 340 1396 348 1383C 356 1370 354 1360 343 1360C 319 1360 208 1100 216 1063C 220 1048 214 1041 204 1048C 186 1059 131 957 140 928C 142 921 133 908 120 900C 48 856 101 540 181 540C 193 540 216 526 233 510C 251 492 254 480 240 480C 226 480 229 468 247 450C 264 433 284 420 291 420C 299 420 316 406 328 389C 341 372 364 356 381 353C 430 345 502 299 491 282C 486 273 566 206 670 133L670 133L858 0L1120 0C 1368 0 1540 37 1540 92C 1540 98 1529 96 1515 88C 1497 78 1496 80 1512 98C 1524 111 1559 126 1589 132C 1645 142 1801 214 1820 238C 1826 245 1853 262 1880 276C 1908 290 1914 297 1894 291C 1872 285 1863 289 1871 301C 1878 312 1898 317 1917 312C 1957 299 2106 387 2085 410C 2077 419 2081 420 2094 412C 2108 405 2155 417 2199 440C 2283 482 2306 507 2245 488C 2226 482 2241 495 2280 517C 2318 538 2356 552 2364 547C 2386 534 2702 712 2685 728C 2677 737 2679 740 2690 737C 2723 726 2840 783 2828 804C 2821 814 2828 820 2843 817C 2858 813 2899 823 2935 838C 3019 873 3052 858 3095 766C 3114 724 3135 686 3140 680C 3146 675 3153 652 3156 630C 3160 608 3180 566 3201 536C 3223 506 3240 470 3240 456C 3240 442 3252 407 3267 379C 3282 350 3300 303 3307 274C 3315 243 3335 220 3353 220C 3374 220 3381 208 3375 182C 3368 156 3380 136 3412 119C 3438 105 3454 86 3447 76C 3408 12 3507 1 4132 1C 4787 0 4820 4 4820 95C 4820 107 4831 120 4845 125C 4886 139 4871 301 4819 400C 4793 450 4771 495 4770 500C 4761 548 4729 614 4707 630C 4692 641 4676 669 4671 693C 4663 737 4583 903 4562 920C 4556 926 4547 948 4544 970C 4540 992 4523 1021 4507 1034C 4490 1047 4482 1066 4488 1077C 4495 1088 4482 1110 4459 1126C 4435 1143 4427 1159 4440 1163C 4455 1168 4449 1188 4424 1220C 4385 1270 4380 1281 4380 1321C 4380 1333 4370 1336 4359 1329C 4347 1322 4339 1328 4341 1343C 4349 1398 4339 1442 4322 1432C 4307 1422 4280 1508 4280 1568C 4280 1581 4345 1627 4425 1669C 4505 1712 4577 1757 4585 1769C 4593 1780 4600 1783 4600 1775C 4600 1766 4634 1780 4675 1806C 4716 1832 4829 1895 4925 1948C 5022 2000 5096 2050 5090 2060C 5084 2069 5088 2083 5100 2090C 5111 2097 5120 2092 5120 2080C 5120 2068 5174 2086 5240 2122C 5306 2157 5360 2193 5360 2203C 5360 2212 5367 2219 5375 2218C 5415 2211 5441 2222 5430 2240C 5423 2251 5432 2260 5449 2260C 5466 2260 5480 2270 5480 2282C 5480 2294 5494 2299 5510 2293C 5527 2286 5540 2288 5540 2297C 5540 2306 5552 2313 5566 2313C 5600 2313 5700 2380 5700 2402C 5700 2412 5718 2420 5740 2420C 5762 2420 5780 2429 5780 2440C 5780 2451 5794 2460 5811 2460C 5828 2460 5837 2469 5830 2480C 5823 2491 5832 2500 5849 2500C 5868 2500 5880 2518 5880 2545C 5880 2572 5887 2581 5895 2567C 5906 2550 5923 2554 5955 2580C 6044 2652 6001 2817 5894 2819C 5871 2820 5863 2829 5872 2845C 5883 2865 5880 2865 5859 2845C 5827 2815 5760 2812 5760 2840C 5760 2851 5717 2859 5665 2858C 5588 2856 5579 2853 5620 2840C 5659 2828 5646 2824 5562 2822C 5426 2819 4754 2670 4689 2628C 4662 2610 4625 2601 4607 2608C 4589 2615 4553 2607 4526 2589C 4500 2572 4463 2562 4444 2568C 4397 2582 4215 2532 4234 2511C 4243 2501 4239 2500 4225 2508C 4198 2523 3958 2479 3969 2461C 3973 2454 3943 2452 3902 2456C 3835 2463 3824 2473 3783 2562C 3758 2616 3733 2660 3728 2660C 3722 2660 3724 2650 3732 2637C 3740 2623 3737 2619 3724 2627C 3712 2635 3703 2656 3704 2675C 3705 2714 3540 3082 3500 3130C 3486 3146 3481 3160 3488 3160C 3506 3160 3420 3327 3392 3345C 3380 3353 3378 3360 3387 3360C 3396 3360 3385 3392 3362 3431C 3339 3470 3320 3512 3320 3524C 3320 3536 3301 3562 3277 3583C 3253 3603 3245 3620 3258 3620C 3272 3620 3261 3656 3231 3711C 3203 3761 3180 3815 3180 3831C 3180 3847 3163 3870 3142 3883C 3121 3896 3108 3918 3114 3932C 3119 3946 3103 3968 3079 3981C 3047 3998 3041 4009 3060 4020C 3078 4031 3066 4067 3013 4158C 2974 4225 2946 4280 2952 4280C 2957 4280 2940 4309 2914 4345C 2887 4381 2869 4421 2874 4435C 2879 4449 2874 4460 2862 4460C 2850 4460 2840 4478 2840 4500C 2840 4522 2830 4540 2817 4540C 2804 4540 2799 4545 2805 4552C 2822 4568 2780 4680 2757 4680C 2746 4680 2743 4689 2750 4700C 2757 4711 2753 4720 2741 4720C 2730 4720 2720 4732 2720 4746C 2720 4803 2561 5100 2530 5100C 2512 5100 2500 5111 2501 5125C 2511 5200 2503 5203 2322 5197C 2223 5193 2146 5187 2151 5183zM2508 4805C 2727 4343 3743 2232 3751 2223C 3758 2215 5045 2520 5557 2651C 5945 2751 5920 2746 5920 2724C 5920 2715 5882 2691 5835 2670C 5745 2631 5340 2411 4508 1950L4508 1950L4006 1672L4064 1561C 4134 1426 4740 177 4740 167C 4740 163 4473 162 4148 165L4148 165L3555 170L3366 590C 3262 821 3163 1048 3146 1095C 3111 1196 3123 1194 3005 1122C 2953 1090 2502 839 2004 563L2004 563L1099 63L674 374C 441 546 243 692 235 699C 226 707 257 789 302 881C 347 974 529 1351 705 1720C 2091 4623 2095 4632 2230 4925C 2285 5043 2335 5139 2340 5139C 2346 5139 2421 4989 2508 4805z" stroke="none" fill="#FF0000" fill-rule="nonzero" />
        <path d="M2290 2785C 2270 2733 2168 2501 2064 2270C 1800 1683 1180 253 1180 229C 1180 222 1235 273 1301 343C 1368 412 1413 472 1402 476C 1390 480 1403 507 1431 536C 1458 566 1480 609 1480 634C 1480 658 1496 687 1515 698C 1534 710 1539 719 1526 719C 1512 720 1506 734 1513 752C 1520 770 1531 775 1538 763C 1545 752 1561 766 1574 793C 1594 836 1593 839 1569 819C 1546 800 1540 802 1540 828C 1540 845 1550 860 1562 860C 1575 860 1580 878 1574 900C 1560 954 1577 951 1599 895C 1616 854 1618 855 1619 914C 1620 995 1654 1086 1678 1071C 1688 1065 1696 1093 1696 1133C 1696 1204 1730 1249 1767 1226C 1778 1219 1780 1224 1772 1237C 1764 1250 1769 1261 1784 1262C 1798 1263 1788 1271 1760 1280C 1727 1291 1722 1297 1745 1298C 1765 1299 1781 1317 1783 1340C 1785 1362 1787 1391 1788 1405C 1789 1419 1798 1436 1808 1443C 1834 1462 1881 1607 1864 1619C 1856 1625 1850 1657 1850 1690C 1850 1763 1867 1770 2360 1883C 2809 1986 2770 1971 2735 2025C 2703 2074 2394 2762 2371 2835C 2350 2903 2329 2890 2290 2785zM2401 2340C 2412 2340 2419 2333 2418 2325C 2412 2287 2422 2259 2438 2269C 2448 2275 2454 2242 2453 2195C 2450 2110 2450 2110 2355 2092C 2303 2082 2260 2066 2260 2057C 2260 2047 2240 2041 2215 2042C 2190 2042 2182 2048 2196 2054C 2216 2061 2216 2070 2198 2092C 2181 2113 2181 2120 2199 2120C 2214 2120 2218 2135 2210 2160C 2203 2182 2206 2200 2217 2200C 2227 2200 2245 2226 2256 2258C 2286 2343 2367 2422 2376 2375C 2380 2356 2391 2340 2401 2340z" stroke="none" fill="#FF0000" fill-rule="nonzero" />
        <path d="M3372 2237C 3381 2222 3377 2219 3362 2229C 3338 2244 3079 2184 3060 2160C 3038 2132 2982 2124 2973 2146C 2966 2164 2963 2164 2962 2145C 2961 2131 2947 2120 2931 2120C 2894 2120 2789 2024 2807 2006C 2814 1999 2949 2023 3105 2059C 3262 2095 3448 2137 3520 2153C 3591 2169 3657 2189 3667 2199C 3694 2226 3499 2261 3453 2236C 3426 2222 3419 2222 3429 2238C 3437 2251 3426 2260 3400 2260C 3373 2260 3363 2252 3372 2237z" stroke="none" fill="#FF0000" fill-rule="nonzero" />
        <path d="M3560 1427C 3140 1197 3106 1170 3254 1186C 3364 1199 3479 1247 3506 1293C 3515 1308 3531 1315 3542 1308C 3554 1302 3580 1312 3601 1331C 3623 1350 3640 1359 3640 1351C 3640 1342 3654 1346 3670 1360C 3687 1374 3700 1378 3700 1369C 3700 1360 3712 1369 3727 1389C 3744 1412 3764 1420 3780 1410C 3797 1399 3801 1402 3792 1417C 3784 1430 3790 1440 3806 1440C 3822 1440 3856 1471 3882 1510C 3909 1548 3937 1580 3945 1580C 3953 1580 3960 1589 3960 1600C 3960 1640 3903 1616 3560 1427z" stroke="none" fill="#FF0000" fill-rule="nonzero" />
	</g>
</g>
</svg>